<svg version="1.1" id="Layer_1" xmlns="http://www.w3.org/2000/svg" xmlns:xlink="http://www.w3.org/1999/xlink" x="0px" y="0px"
	 width="100%" viewBox="0 0 1024 1024" enable-background="new 0 0 1024 1024" xml:space="preserve">
<path fill="#000000" opacity="1.000000" stroke="none" 
	d="
M425.865234,568.772766 
	C425.568970,571.559265 427.626770,572.073730 429.034882,573.140381 
	C433.386627,576.436523 434.905853,581.127869 433.140564,585.931152 
	C431.453491,590.521545 427.926392,592.771606 423.227844,593.059387 
	C418.630249,593.340881 414.138000,589.930054 412.624756,585.391235 
	C411.143646,580.948669 412.637878,575.973877 416.897156,573.122192 
	C419.157928,571.608582 419.952667,569.921326 419.939911,567.372925 
	C419.876556,554.708618 419.774933,542.041931 419.959900,529.380127 
	C420.026520,524.818481 417.665192,524.298950 413.992310,524.303162 
	C410.312134,524.307373 407.846527,524.839172 408.054199,529.409851 
	C408.229218,533.261108 408.063904,536.625671 411.835480,539.485352 
	C415.793182,542.486206 415.191040,549.436951 411.552673,552.931274 
	C408.046051,556.299072 401.949036,556.120728 398.439636,552.547791 
	C394.742249,548.783508 394.356018,542.097534 398.680176,539.235779 
	C404.052521,535.680298 402.396942,530.914673 402.507629,526.309387 
	C402.550629,524.520264 401.016815,523.880127 399.697144,523.139893 
	C394.403931,520.170715 391.863129,515.485779 391.833252,509.566376 
	C391.729797,489.069702 391.797638,468.572174 391.696320,448.075500 
	C391.680511,444.879608 392.855194,443.738861 396.070953,443.622833 
	C406.143951,443.259521 406.136963,443.146820 406.137299,452.987061 
	C406.137604,462.485718 406.130890,471.984406 406.153229,481.483032 
	C406.174072,490.351715 407.476807,491.668182 416.213715,491.670624 
	C457.041473,491.681976 497.869263,491.686951 538.697021,491.691528 
	C562.693787,491.694244 586.690491,491.700592 610.687256,491.686829 
	C618.307007,491.682465 619.864075,490.205750 619.871643,482.714691 
	C619.908691,445.719879 619.918274,408.725037 619.902283,371.730225 
	C619.899414,364.977142 617.829712,363.527740 611.071350,363.618011 
	C589.746887,363.902832 568.418457,363.950684 547.091431,363.971008 
	C503.264313,364.012817 459.437164,363.981293 415.610016,363.970154 
	C407.068970,363.967987 406.098602,364.875580 406.089203,373.327545 
	C406.073273,387.658844 406.125824,401.990295 406.080872,416.321472 
	C406.062622,422.133148 405.776031,422.050873 398.009125,422.308777 
	C393.370087,422.462830 391.530487,421.173401 391.620331,416.181152 
	C391.908142,400.188385 391.723541,384.187378 391.751312,368.189606 
	C391.773407,355.475830 397.323608,349.832123 410.037170,349.827393 
	C461.696747,349.808167 513.356384,349.876221 565.015747,349.779846 
	C567.663452,349.774902 571.366333,351.539093 572.792603,347.466278 
	C574.605164,342.290253 572.676208,336.336823 568.624329,334.017029 
	C554.744751,326.070679 540.828491,318.188232 526.968140,310.208618 
	C524.646545,308.872101 522.800598,308.582153 520.095398,309.842957 
	C513.876221,312.741516 507.402740,309.444000 505.479095,302.985168 
	C503.841278,297.485901 507.180206,291.386108 512.592163,289.990356 
	C519.168884,288.294281 525.349854,292.121033 525.989990,299.036469 
	C526.323914,302.644104 527.971130,304.199829 530.754578,305.782654 
	C545.091553,313.935394 559.263733,322.380463 573.666992,330.412292 
	C577.677429,332.648651 579.354797,335.235962 579.205017,339.880890 
	C578.861511,350.529694 579.734070,351.058319 590.368713,349.861298 
	C592.849487,349.582062 593.993347,348.567902 593.987976,346.128357 
	C593.973755,339.629913 593.918091,333.130737 593.997864,326.633331 
	C594.030396,323.984985 592.136719,323.006744 590.434387,321.654572 
	C586.177979,318.273560 584.871277,313.428223 586.758057,308.740540 
	C588.530151,304.337830 592.834839,301.546661 597.350098,301.872650 
	C602.558716,302.248688 606.465027,305.802277 607.670776,311.195221 
	C608.662292,315.629791 607.019104,319.274780 603.574646,321.691742 
	C600.835876,323.613586 600.139404,325.805542 600.211426,328.852753 
	C600.345215,334.515198 600.353821,340.186981 600.186340,345.848114 
	C600.066406,349.901794 602.610535,349.882812 605.460693,349.856476 
	C608.291077,349.830292 610.861694,349.870331 610.719116,345.801788 
	C610.544128,340.809052 610.607178,335.802399 610.735596,330.806061 
	C610.921753,323.559570 614.064087,321.477600 620.207520,325.013947 
	C632.765625,332.242828 645.252441,339.615723 657.507751,347.342987 
	C664.797363,351.939240 668.174561,359.368927 668.244507,367.755463 
	C668.473938,395.249664 668.277222,422.747192 668.356750,450.243103 
	C668.369751,454.730408 666.574524,456.607422 662.071411,456.411774 
	C657.081116,456.194916 652.064026,456.136932 647.078918,456.398376 
	C642.908936,456.617065 641.593323,455.002808 641.621582,450.906036 
	C641.765076,430.076599 641.672424,409.245544 641.677063,388.415070 
	C641.678040,384.122253 641.946228,380.059875 638.449036,376.381653 
	C635.925354,373.727325 636.845093,369.928589 639.633301,367.413879 
	C642.415710,364.904480 645.848206,364.740112 648.803650,367.026855 
	C652.055847,369.543182 652.583374,373.539368 650.164490,376.367554 
	C646.943237,380.133911 647.007385,384.142761 647.021423,388.452789 
	C647.082642,407.283295 647.202271,426.114716 647.062561,444.944000 
	C647.031921,449.076111 647.909790,450.916016 652.542358,450.930664 
	C657.251587,450.945557 657.996216,448.901154 658.012695,444.885681 
	C658.113953,420.227722 657.483093,395.566895 658.401306,370.909393 
	C658.604492,365.454315 657.303345,359.731323 652.580200,356.606567 
	C641.230591,349.097870 629.442993,342.251190 617.332153,334.831055 
	C615.678955,339.571960 616.421326,343.699127 616.469604,347.740601 
	C616.489563,349.414154 617.961426,349.780548 619.371155,349.845856 
	C629.458618,350.313477 634.312683,357.583954 634.250854,368.545197 
	C634.062805,401.872803 634.173157,435.202118 634.203613,468.530762 
	C634.205688,470.827667 633.812622,473.178589 634.845398,475.945496 
	C639.645813,475.945496 644.581421,475.949158 649.517029,475.943787 
	C651.680725,475.941437 652.569031,474.289185 653.715942,472.835724 
	C658.071838,467.315460 665.506714,466.656738 670.398987,471.269379 
	C675.012207,475.618958 675.041443,483.103333 670.461487,487.306396 
	C665.433105,491.920929 657.805908,491.351990 653.959473,485.351929 
	C651.695679,481.820709 648.885254,482.237549 645.808533,482.232239 
	C634.218201,482.212341 634.220215,482.224640 634.196228,493.860809 
	C634.186279,498.693451 634.263977,503.528778 634.129883,508.358154 
	C633.841614,518.738403 628.148560,524.337646 617.814453,524.343628 
	C562.488708,524.375549 507.162903,524.367371 451.837128,524.379028 
	C444.225250,524.380676 444.231171,524.396362 444.236542,532.138062 
	C444.241486,539.303711 444.365662,546.473083 444.170227,553.633484 
	C444.078064,557.011108 445.159180,559.165039 448.150177,560.920959 
	C461.653717,568.848511 475.053925,576.952942 488.448181,585.064880 
	C490.178406,586.112793 491.549866,586.268677 493.504303,585.423340 
	C498.537720,583.246155 503.084198,584.292358 506.105499,588.054626 
	C509.032074,591.698853 509.256042,595.734985 506.964447,599.708191 
	C504.457275,604.055115 500.336029,605.035828 495.711395,604.153381 
	C491.432770,603.336975 488.141968,599.411743 488.130066,594.241272 
	C488.123291,591.296631 486.729889,590.147400 484.642334,588.917419 
	C471.580963,581.221741 458.676971,573.246521 445.439514,565.868652 
	C440.464264,563.095703 438.205017,560.003906 438.585236,554.143372 
	C439.112732,546.012573 438.497437,537.814087 438.769440,529.657837 
	C438.953857,524.128174 435.305115,524.584167 431.796875,524.413574 
	C428.275909,524.242371 425.887024,524.668274 425.978790,529.407715 
	C426.230316,542.396057 425.953857,555.394531 425.865234,568.772766 
M513.434448,513.631042 
	C515.023804,513.524170 516.322144,512.785217 517.282898,511.582367 
	C519.036438,509.387085 519.155823,507.040375 517.597290,504.669281 
	C516.121338,502.423737 513.957214,501.830902 511.493774,502.446686 
	C508.826019,503.113586 507.734467,505.380768 507.684296,507.724274 
	C507.616455,510.892090 509.557098,512.906311 513.434448,513.631042 
M665.322327,475.835236 
	C662.727417,474.525085 660.509155,474.839020 659.020325,477.502106 
	C657.897217,479.511139 658.380554,481.387451 660.123108,482.785492 
	C661.884583,484.198761 663.871277,484.124664 665.537415,482.669464 
	C667.735718,480.749573 668.092163,478.537598 665.322327,475.835236 
M419.649017,584.875610 
	C421.743347,587.174011 423.939850,587.086670 426.057434,584.993774 
	C427.491302,583.576599 427.858398,581.852417 426.656525,580.075623 
	C425.234344,577.973022 423.102173,577.517334 421.015869,578.554810 
	C418.660370,579.726379 417.833649,581.784607 419.649017,584.875610 
M519.533875,299.007843 
	C518.192993,296.229279 515.993591,295.588074 513.390808,296.922607 
	C511.821899,297.727051 511.083282,299.387207 511.514343,301.163727 
	C512.037354,303.319122 513.556580,304.709045 515.818481,304.481842 
	C518.502075,304.212280 519.928711,302.560486 519.533875,299.007843 
M498.351929,598.579773 
	C501.460815,597.661865 503.591095,596.088257 501.833038,592.495972 
	C501.042267,590.880066 499.441742,590.165710 497.628998,590.462585 
	C495.816437,590.759338 494.602386,591.910034 494.359955,593.748047 
	C494.029449,596.254272 495.192078,597.882996 498.351929,598.579773 
M595.329407,309.017487 
	C593.536438,310.110321 592.222473,311.542419 592.631042,313.800720 
	C592.917969,315.386841 594.054565,316.374146 595.631897,316.689575 
	C598.296997,317.222565 600.439514,316.164215 600.907471,313.569427 
	C601.558105,309.961670 599.323364,308.592529 595.329407,309.017487 
M403.480255,548.620056 
	C405.811340,550.182434 407.128906,548.704346 408.194458,546.926453 
	C408.974518,545.624878 408.481842,544.399475 407.403809,543.436096 
	C406.323944,542.471130 405.095032,542.148254 403.855469,543.073669 
	C401.993134,544.463989 401.607330,546.172852 403.480255,548.620056 
z"/>
<path fill="#000000" opacity="1.000000" stroke="none" 
	d="
M454.357635,436.242676 
	C429.097229,436.326752 404.271637,436.387817 379.446808,436.278687 
	C375.726440,436.262360 373.026428,436.872742 370.577209,440.219269 
	C366.846832,445.316315 359.765717,445.453339 355.076080,441.250946 
	C350.228394,436.906921 350.045135,429.443146 354.670654,424.740906 
	C358.836212,420.506256 366.439301,420.277618 370.290771,425.059662 
	C372.878967,428.273193 375.591675,428.825500 379.265564,428.806396 
	C401.425018,428.691132 423.585938,428.664825 445.744873,428.822113 
	C449.691193,428.850128 451.835175,427.582306 453.155365,423.818726 
	C454.804596,419.117126 457.007599,414.606110 459.045959,410.046112 
	C460.113678,407.657501 460.870117,404.634735 464.315216,404.908997 
	C467.726532,405.180542 468.049286,408.306519 468.816528,410.785797 
	C472.399109,422.362457 475.914551,433.959869 480.494110,445.603333 
	C483.221100,435.265564 485.930511,424.923126 488.680450,414.591461 
	C490.948669,406.069855 493.190552,397.539886 495.603455,389.058960 
	C496.363708,386.386841 496.014313,382.299408 500.255859,382.501892 
	C504.257355,382.692871 504.018585,386.681244 504.753113,389.391479 
	C509.321991,406.250031 513.745850,423.147827 518.238708,440.027039 
	C518.645569,441.555542 519.200195,443.044647 519.986755,445.483826 
	C521.684875,441.391968 523.385376,438.307861 524.239014,435.004913 
	C525.589355,429.780273 528.745361,428.506439 533.803345,428.614960 
	C547.626343,428.911530 561.460022,428.677032 575.288574,428.775116 
	C578.437134,428.797485 580.790955,428.239105 583.024719,425.514801 
	C587.014099,420.649353 594.115112,420.759338 598.575256,425.145172 
	C602.834778,429.333710 602.782471,436.698761 598.463623,440.868958 
	C594.068359,445.112885 586.825500,444.956329 582.975159,439.961578 
	C580.709229,437.022247 578.218750,436.338806 574.846313,436.367462 
	C562.184326,436.475006 549.519470,436.505280 536.859009,436.328064 
	C533.510498,436.281219 531.644287,437.390350 530.469788,440.514954 
	C528.244202,446.436157 525.765198,452.263000 523.344238,458.109467 
	C522.407593,460.371368 521.836792,463.271698 518.600098,463.118744 
	C515.307556,462.963196 515.182739,460.058075 514.543518,457.654388 
	C509.928131,440.297485 505.277344,422.950012 500.324127,404.426514 
	C497.057953,412.878540 495.381927,420.567688 493.391113,428.155396 
	C490.435577,439.420166 487.556122,450.704926 484.614471,461.973358 
	C483.985443,464.383118 483.531097,467.232117 480.214905,467.127258 
	C477.232452,467.032959 476.834686,464.294983 476.145660,462.115356 
	C472.332611,450.053467 468.564514,437.977386 464.789154,425.903625 
	C464.451813,424.824738 464.445862,423.563721 462.827118,422.983276 
	C459.355011,426.833679 459.539062,433.066589 454.357635,436.242676 
M361.052856,428.678009 
	C358.267212,429.926331 357.562988,432.101318 358.736359,434.733307 
	C359.526276,436.505157 361.169403,437.466003 363.184540,437.032684 
	C365.114624,436.617645 366.483643,435.322571 366.578156,433.307770 
	C366.730103,430.069916 364.938934,428.512787 361.052856,428.678009 
z"/>
<path fill="#000000" opacity="1.000000" stroke="none" 
	d="
M496.387756,281.439392 
	C457.003937,305.183441 418.000763,328.853363 378.804199,352.198578 
	C370.561859,357.107666 366.859406,363.551788 367.230499,373.060699 
	C367.620026,383.040344 367.264099,393.047577 367.334259,403.042023 
	C367.358978,406.565308 366.674988,409.743286 362.533813,409.791565 
	C358.606384,409.837341 357.172424,406.897614 357.157959,403.324799 
	C357.104645,390.169952 356.351257,376.971527 357.838440,363.882050 
	C358.841614,355.052399 364.205139,348.878174 371.858215,344.346283 
	C391.776459,332.551331 411.546661,320.506500 431.380890,308.569611 
	C453.069916,295.516388 474.862396,282.631470 496.416107,269.358704 
	C507.525726,262.517395 518.067322,262.294495 529.184021,269.284973 
	C542.996582,277.970673 557.118347,286.164520 571.093933,294.591827 
	C572.946350,295.708832 574.696106,296.995331 576.542358,298.123352 
	C579.937561,300.197815 579.598633,302.766876 577.855225,305.783020 
	C575.903625,309.159210 573.681213,308.111389 571.174133,306.597961 
	C557.201294,298.163055 542.757080,290.417633 529.346130,281.171387 
	C517.885742,273.270020 507.569489,272.231201 496.387756,281.439392 
z"/>
<path fill="#000000" opacity="1.000000" stroke="none" 
	d="
M522.197021,623.299805 
	C563.710205,598.517700 604.827393,573.810669 646.143494,549.440857 
	C654.572571,544.469116 658.544006,538.020813 657.936584,528.251038 
	C657.492920,521.115051 657.818115,513.929565 657.853149,506.766357 
	C657.870239,503.281921 658.921753,500.139465 662.967407,500.113342 
	C667.231873,500.085754 668.370300,503.138519 668.333435,506.967010 
	C668.250061,515.629150 668.541626,524.301270 668.231140,532.953186 
	C667.889099,542.482849 664.102051,550.512817 655.711304,555.544861 
	C612.298645,581.579651 568.858032,607.568848 525.305725,633.368896 
	C517.301636,638.110413 508.469421,638.025879 500.479279,633.362732 
	C481.061737,622.030640 461.915375,610.233887 442.662140,598.620361 
	C439.832153,596.913269 437.860901,595.040527 440.198273,591.403748 
	C442.507172,587.811218 444.962677,588.214294 448.170135,590.163574 
	C466.102936,601.061646 484.162659,611.751465 502.062225,622.703369 
	C508.658386,626.739258 515.108582,627.212708 522.197021,623.299805 
z"/>
<path fill="#000000" opacity="1.000000" stroke="none" 
	d="
M530.999878,560.375793 
	C509.537811,560.376648 488.575653,560.338257 467.613800,560.408508 
	C463.213989,560.423279 460.050262,559.179993 459.643951,554.259949 
	C459.267059,549.696350 461.611969,546.928955 466.215332,546.740356 
	C470.367889,546.570190 474.535675,546.577209 478.689972,546.713257 
	C481.565094,546.807373 483.183380,545.933228 484.155334,542.948730 
	C485.572205,538.597961 485.321625,532.569031 489.295929,530.466248 
	C492.847382,528.587219 498.053284,529.748352 502.530060,529.722473 
	C512.844421,529.662964 523.160400,529.780518 533.473328,529.642517 
	C536.556458,529.601257 538.319641,530.478333 539.347168,533.611267 
	C540.763428,537.929382 540.194031,543.992188 544.466187,546.007019 
	C548.173828,547.755676 553.266724,546.603516 557.748352,546.666260 
	C563.784790,546.750793 566.153320,548.530334 566.340454,553.232300 
	C566.525879,557.891724 564.338379,560.275757 559.449097,560.327026 
	C550.133606,560.424744 540.816406,560.367920 530.999878,560.375793 
z"/>
<path fill="#000000" opacity="1.000000" stroke="none" 
	d="
M334.609131,687.985596 
	C339.852661,687.609985 344.690369,687.148926 349.445496,688.236572 
	C365.190765,691.838013 374.848694,705.353455 373.251038,721.423401 
	C371.786438,736.155273 359.337250,747.510437 343.833069,748.256104 
	C328.802246,748.979126 315.997406,740.945251 312.058899,728.320740 
	C307.679749,714.283752 312.579163,699.580322 324.048462,692.177063 
	C327.176544,690.157898 330.661285,689.103516 334.609131,687.985596 
M348.514374,735.212708 
	C356.658661,731.805176 359.969330,725.247559 359.554596,716.907776 
	C359.181885,709.412231 355.641235,703.522888 348.339172,700.631409 
	C341.019318,697.732910 332.616882,699.923584 327.976349,705.703613 
	C323.170135,711.690002 322.788391,722.042236 327.127625,728.717590 
	C331.364227,735.235046 339.471802,737.898071 348.514374,735.212708 
z"/>
<path fill="#000000" opacity="1.000000" stroke="none" 
	d="
M396.484589,571.556335 
	C387.988800,566.566772 379.810760,561.757141 371.610992,556.984802 
	C363.059753,552.007935 358.122253,544.616211 357.622711,534.750000 
	C356.426788,511.129700 357.252228,487.485687 357.161041,463.851746 
	C357.144226,459.495972 359.059082,457.476807 363.563782,457.683136 
	C368.382324,457.903809 373.230042,457.966919 378.042542,457.697205 
	C382.330383,457.456970 383.432770,459.330231 383.377686,463.299347 
	C383.206696,475.617096 383.400421,487.939606 383.282349,500.258636 
	C383.252899,503.332214 384.027283,505.446075 386.624298,507.432709 
	C392.019562,511.559906 392.403656,518.662415 387.933105,523.223633 
	C384.016907,527.219299 376.987183,526.971741 373.177063,522.703979 
	C369.160919,518.205444 369.693390,511.027374 374.784149,507.260284 
	C377.139679,505.517212 377.846558,503.676666 377.829376,500.991486 
	C377.760040,490.170227 377.700897,479.346527 377.872498,468.527405 
	C377.934204,464.637939 376.530609,463.254730 372.625366,463.278381 
	C368.880676,463.301086 367.242310,464.290253 367.271515,468.365173 
	C367.420746,489.175293 367.236145,509.987793 367.391693,530.797791 
	C367.448822,538.440796 370.640656,544.524475 377.562653,548.490479 
	C386.659882,553.702820 395.584442,559.215759 404.652771,564.479614 
	C407.987915,566.415527 410.338196,567.995789 407.595978,572.516052 
	C404.810120,577.108215 402.261871,574.909973 399.366577,573.286560 
	C398.495758,572.798218 397.650024,572.265198 396.484589,571.556335 
M379.011261,512.463562 
	C376.760162,513.920532 376.539001,515.884949 377.839508,518.014099 
	C378.823273,519.624695 380.453369,520.089539 382.168488,519.356750 
	C383.833160,518.645508 384.802887,517.172546 384.498962,515.374512 
	C384.060699,512.781677 382.197479,511.947906 379.011261,512.463562 
z"/>
<path fill="#000000" opacity="1.000000" stroke="none" 
	d="
M529.153198,695.951294 
	C536.656616,712.823608 544.008240,729.350830 551.537903,746.278442 
	C546.940186,747.989258 542.969421,747.391846 539.128845,747.075317 
	C536.539490,746.861938 536.046570,744.071045 535.564880,742.126221 
	C534.136658,736.359131 530.677246,734.542603 524.961548,735.161438 
	C520.517822,735.642578 515.969421,735.455322 511.488556,735.198181 
	C507.960449,734.995667 506.124695,736.331726 504.735046,739.589478 
	C501.049683,748.228882 498.594482,749.167053 488.988861,746.506714 
	C488.446259,745.298767 488.981903,744.248169 489.456665,743.177551 
	C496.674896,726.899841 503.928986,710.637695 511.072754,694.327271 
	C512.776855,690.436401 514.576233,687.768494 519.727600,687.794373 
	C524.794434,687.819885 526.960693,690.114380 528.342468,694.261902 
	C528.498779,694.731079 528.778687,695.159119 529.153198,695.951294 
M514.780640,716.151978 
	C514.242310,718.157410 512.533630,719.841492 513.152405,722.699097 
	C517.557251,722.674805 522.008606,723.736206 526.927979,721.947205 
	C524.527222,716.292053 522.368652,711.207214 519.715881,704.958313 
	C517.841858,709.241455 516.477661,712.359436 514.780640,716.151978 
z"/>
<path fill="#000000" opacity="1.000000" stroke="none" 
	d="
M381.590820,728.000000 
	C381.587891,721.002136 381.836700,714.491150 381.496063,708.011047 
	C381.277405,703.851440 382.944122,702.628235 386.708618,703.021240 
	C389.820526,703.346130 393.638733,701.922852 394.789551,706.594849 
	C406.258362,700.322266 416.301025,701.395630 423.258087,709.574158 
	C430.161530,717.689514 430.272888,731.963013 423.501373,740.759949 
	C417.294403,748.823486 407.217834,750.063965 394.343414,743.838623 
	C394.343414,748.778870 394.198151,753.346741 394.383179,757.901245 
	C394.578644,762.712280 391.279358,762.232300 388.308472,762.117371 
	C385.383881,762.004333 381.559235,763.265808 381.603394,757.990540 
	C381.685669,748.161072 381.605377,738.330261 381.590820,728.000000 
M403.773895,713.573364 
	C399.388336,714.471497 396.135529,716.692993 394.745056,721.172852 
	C393.238495,726.026794 394.607330,731.592773 398.160431,734.399597 
	C401.791779,737.268250 405.832672,737.711792 409.803009,735.418152 
	C414.441956,732.738098 415.351227,728.221008 414.774292,723.289062 
	C414.129822,717.779785 411.196960,715.037781 403.773895,713.573364 
z"/>
<path fill="#000000" opacity="1.000000" stroke="none" 
	d="
M666.770630,703.827454 
	C676.546326,707.850525 679.645874,715.643372 680.316284,725.033569 
	C680.577576,728.692444 679.105408,730.171143 675.463257,730.106567 
	C668.981262,729.991638 662.494995,730.065796 656.011292,730.136108 
	C654.060181,730.157227 652.027649,729.744507 650.180908,730.781128 
	C651.660706,737.156921 659.058350,739.943481 665.586914,735.818848 
	C669.446167,733.380737 671.776733,733.671997 675.056274,736.456299 
	C677.986877,738.944336 677.656372,740.486816 675.045532,742.690979 
	C666.596130,749.823853 652.718994,750.143921 643.994690,743.300598 
	C636.117065,737.121399 633.613708,723.857422 638.496033,714.165894 
	C643.113647,704.999817 654.373413,700.505676 665.441711,703.413147 
	C665.762878,703.497498 666.077698,703.606384 666.770630,703.827454 
M651.461548,720.793335 
	C655.286621,720.821289 659.111877,720.881897 662.936646,720.859070 
	C664.233887,720.851379 665.821167,721.038086 666.410034,719.517273 
	C667.040283,717.889343 665.917969,716.647827 664.875732,715.571533 
	C661.021851,711.591309 652.653381,712.831421 650.139404,717.713684 
	C649.551147,718.855957 649.262756,719.909790 651.461548,720.793335 
z"/>
<path fill="#000000" opacity="1.000000" stroke="none" 
	d="
M588.369934,707.517700 
	C589.171387,709.891052 587.474426,711.170410 586.839722,712.820862 
	C585.623108,715.984802 583.721924,716.750793 580.656860,714.957520 
	C577.549622,713.139709 574.077026,712.691040 570.505066,713.166870 
	C569.118835,713.351501 567.773804,713.765198 567.564331,715.367188 
	C567.352844,716.984070 568.607605,717.810120 569.867371,718.248535 
	C573.479919,719.505798 577.217407,720.426147 580.775208,721.813721 
	C587.679199,724.506287 590.625549,728.715149 590.283081,734.865601 
	C589.952942,740.794922 586.165527,745.248962 579.601440,747.197266 
	C570.837952,749.798157 562.830200,747.469238 555.186096,743.185303 
	C553.126953,742.031372 552.095764,740.279236 554.150696,738.404541 
	C556.132812,736.596436 556.340393,731.490845 561.011902,734.204041 
	C564.826965,736.419800 568.744202,738.093262 573.273254,737.740173 
	C575.188904,737.590881 577.149292,737.198364 577.383789,734.929871 
	C577.603394,732.805603 575.592834,732.267334 574.086182,731.746826 
	C570.944641,730.661560 567.659485,729.977844 564.549988,728.816772 
	C557.377319,726.138428 553.938049,720.861572 554.883667,714.372192 
	C555.822083,707.932922 560.757996,703.465088 568.058899,702.796204 
	C575.187378,702.143311 581.998901,703.281189 588.369934,707.517700 
z"/>
<path fill="#000000" opacity="1.000000" stroke="none" 
	d="
M596.863708,720.365417 
	C596.228149,707.983337 601.252258,702.748535 613.125916,702.636902 
	C617.392639,702.596802 621.387939,703.553467 625.271667,705.092773 
	C630.794556,707.281738 630.966614,708.268677 628.042908,713.491150 
	C626.576172,716.111084 624.952454,716.614319 622.385742,715.267883 
	C619.234985,713.615173 615.873352,712.745300 612.272034,713.141602 
	C610.683838,713.316345 609.156921,713.881592 608.899902,715.585449 
	C608.618408,717.451965 610.242310,718.103638 611.676331,718.573730 
	C615.153137,719.713684 618.729797,720.579895 622.139893,721.886108 
	C628.473450,724.312134 631.309937,728.286072 631.299805,734.179810 
	C631.289612,740.091492 628.009705,744.614685 621.780334,746.831543 
	C612.951965,749.973206 604.727417,747.860474 596.885071,743.492371 
	C594.915955,742.395630 592.890076,740.767151 595.268738,738.466309 
	C597.191345,736.606628 597.545166,731.659973 602.251587,734.367493 
	C605.445496,736.204895 608.757874,737.786133 612.563721,737.764709 
	C614.862732,737.751770 617.790039,738.190308 618.312561,735.188416 
	C618.806824,732.348572 615.894287,732.028992 613.947266,731.341309 
	C610.971252,730.290222 607.899292,729.510803 604.923645,728.458679 
	C601.136719,727.119568 598.250305,724.748840 596.863708,720.365417 
z"/>
<path fill="#000000" opacity="1.000000" stroke="none" 
	d="
M702.981567,729.689209 
	C703.640991,736.760681 704.078491,737.075928 711.265320,736.112305 
	C716.226807,743.980957 714.401550,747.694763 705.303711,748.242371 
	C695.857971,748.810913 690.451294,744.189392 689.924561,734.714905 
	C689.629517,729.406921 689.868042,724.070679 689.795044,718.748108 
	C689.775330,717.306702 690.267212,715.055481 688.677307,714.712402 
	C682.037781,713.279968 685.585754,708.217041 684.207886,704.353943 
	C689.894531,704.282715 690.205750,700.802673 689.794250,696.875610 
	C689.207153,691.272400 693.088745,691.945129 696.641846,691.825439 
	C700.432007,691.697815 703.718201,692.243164 702.805481,697.048828 
	C701.656555,703.098877 704.532288,704.267212 709.630737,703.694641 
	C714.397949,703.159241 713.823547,706.665527 713.937256,709.656067 
	C714.065247,713.022827 712.421692,713.861633 709.273682,713.672791 
	C702.942078,713.292908 702.943481,713.435059 702.982971,719.748291 
	C703.002747,722.908936 702.978882,726.069763 702.981567,729.689209 
z"/>
<path fill="#000000" opacity="1.000000" stroke="none" 
	d="
M437.683319,721.171082 
	C437.773041,717.328247 437.885193,714.740845 433.324890,713.227356 
	C429.836884,712.069641 432.165344,707.417969 431.847168,703.903381 
	C437.335022,704.415710 438.230774,701.277466 437.623932,697.066223 
	C436.939972,692.319885 439.523102,691.434753 443.525391,691.681213 
	C447.010956,691.895813 451.033142,691.052063 450.291077,696.718323 
	C449.681396,701.373779 451.361877,703.586670 456.310730,703.028687 
	C460.870850,702.514526 461.164612,705.512878 461.308838,709.071472 
	C461.475830,713.190369 459.453674,713.910522 456.092804,713.436829 
	C451.500244,712.789429 449.759796,714.760193 450.238098,719.355530 
	C450.563599,722.483154 450.280884,725.672729 450.291443,728.834534 
	C450.317444,736.612305 451.031555,737.210144 458.736084,735.838440 
	C460.636108,737.439331 460.494080,739.984070 461.391846,742.063538 
	C462.331909,744.241028 461.238586,745.406860 459.398651,746.425415 
	C449.157166,752.095581 438.007874,745.813965 437.722595,734.125732 
	C437.621094,729.967712 437.692993,725.805481 437.683319,721.171082 
z"/>
<path fill="#000000" opacity="1.000000" stroke="none" 
	d="
M468.976562,718.011108 
	C468.967072,714.686646 469.153381,711.843018 468.912415,709.036072 
	C468.490204,704.117981 470.764404,702.664673 475.392792,702.883972 
	C481.613739,703.178711 482.091003,703.335083 482.120178,709.272522 
	C482.174103,720.248535 481.912170,731.231934 482.238861,742.198547 
	C482.418762,748.238037 478.537079,747.112671 474.972870,747.375732 
	C470.911133,747.675598 468.771484,746.631470 468.941071,741.953918 
	C469.224091,734.148560 468.994049,726.324585 468.976562,718.011108 
z"/>
<path fill="#000000" opacity="1.000000" stroke="none" 
	d="
M470.742310,696.215698 
	C467.152802,690.176758 468.813049,684.625061 474.158569,683.806824 
	C477.757263,683.255981 480.720581,684.387451 482.427216,687.844116 
	C483.948273,690.924927 483.232483,693.719238 480.904266,696.006836 
	C477.842407,699.015259 474.466095,699.000305 470.742310,696.215698 
z"/>
</svg>